<?xml version="1.0" encoding="UTF-8"?>
<!DOCTYPE svg PUBLIC "-//W3C//DTD SVG 1.1//EN" "http://www.w3.org/Graphics/SVG/1.1/DTD/svg11.dtd">
<!-- Creator: CorelDRAW -->
<svg xmlns="http://www.w3.org/2000/svg" xml:space="preserve" width="2048px" height="2048px" style="shape-rendering:geometricPrecision; text-rendering:geometricPrecision; image-rendering:optimizeQuality; fill-rule:evenodd; clip-rule:evenodd"
viewBox="0 0 2048 2048"
 xmlns:xlink="http://www.w3.org/1999/xlink">
 <defs>
  <style type="text/css">
   <![CDATA[
    .fil2 {fill:none}
    .fil1 {fill:#00897B}
    .fil7 {fill:#212121}
    .fil0 {fill:#26A69A}
    .fil5 {fill:#96520F}
    .fil6 {fill:#B26A20}
    .fil4 {fill:#D6822D}
    .fil8 {fill:white}
    .fil3 {fill:#B26A20;fill-rule:nonzero}
   ]]>
  </style>
   <clipPath id="id0">
    <path d="M1024 -0.0011811c565.539,0 1024,458.462 1024,1024 0,565.539 -458.462,1024 -1024,1024 -565.539,0 -1024,-458.462 -1024,-1024 0,-565.539 458.462,-1024 1024,-1024z"/>
   </clipPath>
 </defs>
 <g id="Layer_x0020_1">
  <metadata id="CorelCorpID_0Corel-Layer"/>
  <path class="fil0" d="M1024 -0.0011811c565.539,0 1024,458.462 1024,1024 0,565.539 -458.462,1024 -1024,1024 -565.539,0 -1024,-458.462 -1024,-1024 0,-565.539 458.462,-1024 1024,-1024z"/>
  <g style="clip-path:url(#id0)">
   <g id="_300475496">
    <g>
     <polygon id="_2996408641" class="fil1" points="1365.56,684.075 2501.44,1819.96 2503.09,1821.86 2504.71,1823.78 1368.83,687.901 1367.21,685.978 "/>
     <polygon id="_299641008" class="fil1" points="1545.92,692.568 2681.8,1828.45 2682.95,1829.87 2684.01,1831.34 2685,1832.86 1549.12,696.976 1548.13,695.454 1547.06,693.984 "/>
     <polygon id="_299641152" class="fil1" points="1549.12,696.976 2685,1832.86 2685.59,1833.72 2686.17,1834.6 2686.75,1835.5 2687.31,1836.42 2687.87,1837.35 2688.42,1838.3 2688.96,1839.27 2689.49,1840.25 1553.61,704.367 1553.08,703.384 1552.54,702.416 1551.99,701.467 1551.43,700.534 1550.86,699.617 1550.29,698.718 1549.71,697.838 "/>
     <polygon id="_299641200" class="fil1" points="1553.61,704.367 2689.49,1840.25 2690.49,1842.19 2691.42,1844.15 2692.28,1846.13 2693.08,1848.14 2693.8,1850.17 2694.46,1852.22 2695.04,1854.28 2695.55,1856.36 2695.98,1858.44 2696.32,1860.54 2696.59,1862.65 2696.77,1864.76 2696.87,1866.87 2696.88,1868.99 2696.8,1871.1 2696.63,1873.22 1560.74,737.336 1560.92,735.223 1561,733.107 1560.99,730.992 1560.89,728.877 1560.71,726.766 1560.44,724.66 1560.09,722.562 1559.67,720.474 1559.16,718.398 1558.58,716.336 1557.92,714.289 1557.2,712.261 1556.4,710.252 1555.54,708.265 1554.61,706.303 "/>
     <polygon id="_299641296" class="fil1" points="1560.74,737.336 2696.63,1873.22 2696.39,1875.16 2696.07,1877.09 2695.68,1879 2695.21,1880.89 2694.66,1882.77 2694.03,1884.62 2693.33,1886.45 2692.53,1888.25 2691.66,1890.03 2690.69,1891.78 2689.65,1893.5 2688.51,1895.19 2687.29,1896.85 2685.97,1898.48 2684.56,1900.07 2683.06,1901.62 1547.18,765.741 1548.68,764.186 1550.09,762.595 1551.41,760.968 1552.63,759.309 1553.77,757.618 1554.81,755.895 1555.78,754.145 1556.65,752.368 1557.44,750.563 1558.15,748.734 1558.78,746.884 1559.33,745.01 1559.8,743.118 1560.19,741.207 1560.5,739.28 "/>
     <polygon id="_299641368" class="fil1" points="1118.28,493.242 2254.16,1629.12 2256.13,1631.36 2258.09,1633.6 2260.04,1635.87 2261.97,1638.15 2263.89,1640.44 2265.79,1642.76 2267.69,1645.09 2269.57,1647.43 2271.44,1649.79 2273.29,1652.17 2275.13,1654.57 2276.96,1656.98 2278.78,1659.4 2280.59,1661.85 2282.38,1664.3 2284.16,1666.78 2285.92,1669.27 2287.68,1671.77 2289.42,1674.29 2291.15,1676.83 2292.86,1679.38 2294.57,1681.95 1158.69,546.067 1156.98,543.499 1155.27,540.946 1153.54,538.411 1151.8,535.889 1150.04,533.384 1148.27,530.894 1146.5,528.421 1144.7,525.963 1142.9,523.52 1141.08,521.094 1139.25,518.685 1137.41,516.291 1135.56,513.912 1133.69,511.551 1131.81,509.206 1129.91,506.875 1128.01,504.563 1126.09,502.265 1124.15,499.985 1122.21,497.72 1120.25,495.473 "/>
     <polygon id="_299641776" class="fil1" points="1158.69,546.067 2294.57,1681.95 2296.03,1684.19 2297.49,1686.43 2298.94,1688.69 2300.37,1690.96 2301.8,1693.24 2303.22,1695.52 2304.62,1697.82 2306.02,1700.12 2307.41,1702.44 2308.78,1704.77 2310.15,1707.1 2311.51,1709.45 2312.86,1711.8 2314.19,1714.17 2315.52,1716.54 2316.84,1718.93 2318.15,1721.32 2319.45,1723.72 2320.73,1726.14 2322.01,1728.56 2323.28,1730.99 2324.54,1733.43 2325.8,1735.88 2327.04,1738.34 2328.27,1740.81 2329.49,1743.28 2330.7,1745.77 2331.91,1748.27 2333.1,1750.77 2334.29,1753.29 2335.46,1755.81 2336.63,1758.35 1200.75,622.464 1199.58,619.93 1198.4,617.406 1197.22,614.892 1196.03,612.387 1194.82,609.89 1193.61,607.402 1192.39,604.924 1191.16,602.456 1189.91,599.997 1188.66,597.546 1187.4,595.106 1186.13,592.674 1184.85,590.253 1183.56,587.84 1182.27,585.437 1180.96,583.045 1179.64,580.66 1178.31,578.286 1176.97,575.921 1175.63,573.566 1174.27,571.221 1172.9,568.885 1171.53,566.559 1170.14,564.243 1168.74,561.936 1167.34,559.64 1165.92,557.353 1164.49,555.076 1163.06,552.808 1161.61,550.551 1160.15,548.304 "/>
     <polygon id="_299641656" class="fil1" points="1348.63,949.292 2484.51,2085.17 2480.34,2085.81 2476.24,2086.47 2472.21,2087.17 2468.25,2087.89 2464.37,2088.65 2460.55,2089.43 2456.81,2090.25 2453.14,2091.09 2449.55,2091.97 2446.04,2092.88 2442.6,2093.83 2439.24,2094.8 2435.95,2095.81 2432.75,2096.85 2429.63,2097.93 2426.58,2099.04 2423.62,2100.18 2420.75,2101.36 2417.95,2102.58 2415.24,2103.83 2412.61,2105.12 2410.07,2106.44 2407.62,2107.8 2405.26,2109.19 2402.98,2110.63 2400.79,2112.1 2398.69,2113.6 2396.68,2115.15 2394.77,2116.74 2392.94,2118.36 2391.21,2120.02 2389.58,2121.73 1253.69,985.843 1255.33,984.14 1257.06,982.477 1258.89,980.853 1260.8,979.268 1262.81,977.722 1264.91,976.214 1267.1,974.743 1269.37,973.311 1271.74,971.915 1274.19,970.556 1276.73,969.233 1279.36,967.947 1282.07,966.698 1284.86,965.482 1287.74,964.302 1290.7,963.158 1293.75,962.048 1296.87,960.972 1300.07,959.929 1303.35,958.919 1306.72,957.943 1310.15,957 1313.67,956.089 1317.26,955.21 1320.93,954.363 1324.67,953.547 1328.48,952.763 1332.37,952.008 1336.33,951.284 1340.36,950.591 1344.46,949.926 "/>
     <polygon id="_299641536" class="fil1" points="1253.69,985.843 2389.58,2121.73 2388.25,2123.22 2387,2124.77 2385.82,2126.35 2384.72,2127.99 2383.69,2129.67 2382.74,2131.4 2381.87,2133.18 2381.07,2135 2380.35,2136.88 2379.7,2138.8 2379.14,2140.77 2378.66,2142.8 2378.25,2144.87 2377.93,2146.99 2377.69,2149.16 2377.53,2151.39 2377.45,2153.66 2377.46,2155.99 2377.55,2158.37 2377.72,2160.8 2377.98,2163.29 2378.33,2165.82 2378.76,2168.42 2379.28,2171.07 2379.88,2173.77 2380.58,2176.52 2381.36,2179.34 2382.23,2182.21 2383.2,2185.13 2384.25,2188.11 2385.4,2191.15 2386.63,2194.24 1250.75,1058.36 1249.51,1055.27 1248.37,1052.23 1247.31,1049.25 1246.35,1046.32 1245.48,1043.45 1244.7,1040.64 1244,1037.89 1243.4,1035.18 1242.88,1032.54 1242.45,1029.94 1242.1,1027.4 1241.84,1024.92 1241.67,1022.49 1241.58,1020.11 1241.57,1017.78 1241.65,1015.5 1241.81,1013.28 1242.05,1011.11 1242.37,1008.98 1242.78,1006.91 1243.26,1004.89 1243.82,1002.92 1244.47,1001 1245.19,999.122 1245.98,997.296 1246.86,995.52 1247.81,993.79 1248.84,992.108 1249.94,990.472 1251.12,988.883 1252.37,987.341 "/>
     <polygon id="_299641944" class="fil1" points="1250.75,1058.36 2386.63,2194.24 2394.94,2208.98 2403.22,2223.48 2411.44,2237.77 2419.61,2251.86 2427.72,2265.78 2435.77,2279.54 2443.74,2293.16 2451.62,2306.67 2459.41,2320.08 2467.11,2333.41 2474.7,2346.68 2482.18,2359.92 2489.54,2373.14 2496.78,2386.36 2503.88,2399.6 2510.83,2412.88 2517.64,2426.23 2524.3,2439.65 2530.79,2453.17 2537.11,2466.81 2543.25,2480.6 2549.21,2494.54 2554.97,2508.66 2560.53,2522.97 2565.89,2537.51 2571.03,2552.28 2575.95,2567.31 2580.65,2582.62 2585.1,2598.22 2589.31,2614.15 2593.27,2630.4 2596.98,2647.01 1461.1,1511.13 1457.39,1494.52 1453.43,1478.26 1449.22,1462.34 1444.76,1446.74 1440.07,1431.43 1435.15,1416.4 1430.01,1401.63 1424.65,1387.09 1419.09,1372.77 1413.32,1358.65 1407.37,1344.71 1401.23,1330.93 1394.91,1317.29 1388.42,1303.77 1381.76,1290.34 1374.95,1277 1368,1263.72 1360.9,1250.48 1353.66,1237.26 1346.3,1224.04 1338.82,1210.8 1331.23,1197.53 1323.53,1184.19 1315.74,1170.78 1307.85,1157.28 1299.89,1143.65 1291.84,1129.89 1283.73,1115.98 1275.56,1101.89 1267.33,1087.6 1259.06,1073.1 "/>
     <polygon id="_299642496" class="fil1" points="1461.13,1511.12 2597.02,2647.01 2597.34,2649.01 2597.48,2651.04 2597.44,2653.09 2597.23,2655.17 2596.86,2657.26 2596.33,2659.36 2595.66,2661.47 2594.85,2663.59 2593.91,2665.7 2592.86,2667.81 2591.69,2669.91 2590.42,2671.99 2589.06,2674.06 2587.61,2676.11 2586.08,2678.13 2584.48,2680.12 2582.82,2682.07 2581.12,2683.99 2579.36,2685.86 2577.58,2687.68 2575.76,2689.46 2573.93,2691.17 2572.09,2692.83 2570.24,2694.42 2568.4,2695.95 2566.58,2697.4 2564.79,2698.78 2563.02,2700.07 2561.3,2701.28 2559.62,2702.4 2558.01,2703.42 2556.46,2704.35 1420.58,1568.46 1422.13,1567.54 1423.74,1566.51 1425.42,1565.4 1427.14,1564.19 1428.9,1562.89 1430.7,1561.52 1432.52,1560.07 1434.36,1558.54 1436.2,1556.95 1438.05,1555.29 1439.88,1553.57 1441.69,1551.8 1443.48,1549.98 1445.23,1548.1 1446.94,1546.19 1448.6,1544.23 1450.2,1542.24 1451.72,1540.22 1453.18,1538.18 1454.54,1536.11 1455.81,1534.03 1456.98,1531.93 1458.03,1529.82 1458.97,1527.71 1459.78,1525.59 1460.45,1523.48 1460.98,1521.38 1461.35,1519.29 1461.56,1517.21 1461.6,1515.16 1461.46,1513.13 "/>
     <polygon id="_299642280" class="fil1" points="1148.12,1309.31 2284,2445.19 2282.25,2443.56 2280.63,2442.26 2279.14,2441.32 2277.81,2440.77 1141.93,1304.89 1143.26,1305.44 1144.75,1306.38 1146.37,1307.68 "/>
     <polygon id="_299641848" class="fil1" points="1141.93,1304.89 2277.81,2440.77 2272.03,2441.56 2266.12,2442.42 2260.11,2443.33 2254.02,2444.33 2247.85,2445.4 2241.65,2446.57 2235.41,2447.83 2229.17,2449.2 2222.94,2450.69 2216.74,2452.3 2210.59,2454.04 2204.52,2455.92 2198.53,2457.94 2192.65,2460.12 2186.91,2462.47 2181.31,2464.98 2175.88,2467.68 2170.64,2470.56 2165.61,2473.64 2160.81,2476.93 2156.25,2480.42 2151.96,2484.14 2147.95,2488.08 2144.25,2492.27 2140.88,2496.69 2137.85,2501.37 2135.19,2506.31 2132.9,2511.52 2131.03,2517.01 2129.57,2522.78 2128.56,2528.84 2128.01,2535.21 992.13,1399.33 992.681,1392.96 993.692,1386.89 995.147,1381.12 997.024,1375.64 999.305,1370.43 1001.97,1365.49 1005,1360.81 1008.37,1356.38 1012.07,1352.2 1016.08,1348.26 1020.37,1344.54 1024.93,1341.04 1029.73,1337.76 1034.76,1334.68 1040,1331.8 1045.43,1329.1 1051.03,1326.58 1056.77,1324.24 1062.65,1322.06 1068.63,1320.03 1074.71,1318.15 1080.86,1316.41 1087.06,1314.81 1093.29,1313.32 1099.53,1311.95 1105.77,1310.69 1111.97,1309.52 1118.14,1308.44 1124.23,1307.45 1130.24,1306.53 1136.15,1305.68 "/>
     <polygon id="_299641872" class="fil1" points="1318.13,1575.71 2454.01,2711.59 2452.11,2710.79 2450.16,2709.91 2448.16,2708.95 2446.11,2707.91 2444.04,2706.79 2441.93,2705.59 2439.8,2704.33 2437.65,2703 2435.49,2701.6 2433.33,2700.14 2431.16,2698.63 2429.01,2697.06 2426.87,2695.44 2424.75,2693.77 2422.65,2692.05 2420.59,2690.29 2418.57,2688.49 2416.59,2686.66 1280.7,1550.78 1282.68,1552.61 1284.71,1554.41 1286.77,1556.17 1288.87,1557.88 1290.99,1559.55 1293.13,1561.18 1295.28,1562.75 1297.45,1564.26 1299.61,1565.72 1301.77,1567.11 1303.92,1568.45 1306.05,1569.71 1308.15,1570.9 1310.23,1572.02 1312.28,1573.07 1314.28,1574.03 1316.23,1574.91 "/>
     <polygon id="_299642208" class="fil1" points="1420.58,1568.46 2556.46,2704.35 2555.08,2705.13 2553.69,2705.89 2552.29,2706.64 2550.87,2707.36 2549.44,2708.07 2548,2708.76 2546.54,2709.43 2545.08,2710.08 2543.6,2710.71 2542.11,2711.31 2540.6,2711.9 2539.09,2712.47 2537.57,2713.02 2536.04,2713.55 2534.5,2714.06 2532.94,2714.55 2531.38,2715.02 2529.82,2715.47 2528.24,2715.9 2526.66,2716.3 2525.06,2716.69 2523.46,2717.05 2521.86,2717.39 2520.25,2717.71 2518.63,2718.01 2517,2718.29 2515.37,2718.55 2513.74,2718.78 2512.1,2718.99 2510.46,2719.18 2508.81,2719.35 2507.16,2719.49 1371.28,1583.61 1372.93,1583.46 1374.58,1583.3 1376.22,1583.11 1377.86,1582.9 1379.49,1582.66 1381.12,1582.41 1382.75,1582.13 1384.37,1581.83 1385.98,1581.51 1387.58,1581.17 1389.18,1580.8 1390.77,1580.42 1392.36,1580.01 1393.93,1579.59 1395.5,1579.14 1397.06,1578.67 1398.61,1578.18 1400.16,1577.67 1401.69,1577.14 1403.21,1576.59 1404.72,1576.02 1406.23,1575.43 1407.71,1574.82 1409.19,1574.19 1410.66,1573.54 1412.12,1572.88 1413.56,1572.19 1414.99,1571.48 1416.41,1570.76 1417.81,1570.01 1419.2,1569.25 "/>
     <polygon id="_299642520" class="fil1" points="1371.28,1583.61 2507.16,2719.49 2505.51,2719.61 2503.86,2719.71 2502.2,2719.79 2500.54,2719.84 2498.88,2719.87 2497.21,2719.88 2495.54,2719.87 2493.87,2719.83 2492.2,2719.77 2490.53,2719.68 2488.85,2719.57 2487.18,2719.44 2485.5,2719.28 2483.82,2719.1 2482.14,2718.9 2480.47,2718.67 2478.79,2718.41 2477.12,2718.13 2475.45,2717.83 2473.78,2717.5 2472.11,2717.15 2470.44,2716.77 2468.78,2716.37 2467.12,2715.94 2465.47,2715.49 2463.81,2715.01 2462.17,2714.5 2460.53,2713.97 2458.89,2713.41 2457.26,2712.83 2455.63,2712.22 2454.01,2711.59 1318.13,1575.71 1319.75,1576.34 1321.38,1576.95 1323.01,1577.53 1324.64,1578.09 1326.29,1578.62 1327.93,1579.12 1329.58,1579.6 1331.24,1580.06 1332.9,1580.49 1334.56,1580.89 1336.23,1581.27 1337.89,1581.62 1339.57,1581.95 1341.24,1582.25 1342.91,1582.53 1344.59,1582.78 1346.26,1583.01 1347.94,1583.22 1349.62,1583.4 1351.29,1583.56 1352.97,1583.69 1354.65,1583.8 1356.32,1583.88 1357.99,1583.95 1359.66,1583.98 1361.33,1584 1363,1583.99 1364.66,1583.96 1366.32,1583.91 1367.98,1583.83 1369.63,1583.73 "/>
     <polygon id="_299641896" class="fil1" points="1121.04,1432.4 2256.92,2568.29 2260.61,2571.93 2264.06,2575.85 2267.25,2580.06 2270.16,2584.57 2272.78,2589.39 2275.1,2594.53 2277.1,2600 1141.22,1464.12 1139.22,1458.65 1136.9,1453.51 1134.28,1448.69 1131.36,1444.18 1128.18,1439.97 1124.73,1436.05 "/>
     <polygon id="_299642088" class="fil1" points="1141.22,1464.12 2277.1,2600 2277.51,2601.27 2277.9,2602.56 2278.27,2603.85 2278.63,2605.14 2278.98,2606.44 2279.3,2607.75 2279.61,2609.06 2279.91,2610.37 2280.19,2611.69 2280.45,2613.02 2280.69,2614.34 2280.92,2615.67 2281.13,2617.01 2281.32,2618.35 2281.5,2619.68 2281.66,2621.03 2281.8,2622.37 2281.92,2623.72 2282.03,2625.06 2282.12,2626.41 2282.19,2627.76 2282.24,2629.11 2282.28,2630.46 2282.3,2631.81 2282.29,2633.16 2282.27,2634.51 2282.23,2635.86 2282.18,2637.2 2282.1,2638.55 2282,2639.89 2281.89,2641.23 2281.76,2642.57 1145.88,1506.69 1146.01,1505.35 1146.12,1504.01 1146.22,1502.66 1146.29,1501.32 1146.35,1499.97 1146.39,1498.62 1146.41,1497.28 1146.41,1495.93 1146.4,1494.58 1146.36,1493.23 1146.31,1491.88 1146.24,1490.53 1146.15,1489.18 1146.04,1487.83 1145.92,1486.49 1145.78,1485.14 1145.62,1483.8 1145.44,1482.46 1145.25,1481.13 1145.04,1479.79 1144.81,1478.46 1144.57,1477.13 1144.3,1475.81 1144.03,1474.49 1143.73,1473.18 1143.42,1471.87 1143.09,1470.56 1142.75,1469.26 1142.39,1467.96 1142.02,1466.68 1141.62,1465.39 "/>
     <polygon id="_299642160" class="fil1" points="628.223,1036.52 1764.1,2172.41 1765.62,2173.97 1767,2175.65 1768.24,2177.43 1769.32,2179.31 1770.24,2181.27 1770.98,2183.3 1771.52,2185.39 1771.87,2187.52 1772,2189.68 1771.91,2191.85 1771.59,2194.04 1771.01,2196.21 1770.18,2198.36 1769.08,2200.49 1767.7,2202.56 1766.03,2204.58 1764.05,2206.53 628.173,1070.64 630.149,1068.7 631.822,1066.68 633.202,1064.6 634.302,1062.48 635.132,1060.33 635.705,1058.15 636.031,1055.97 636.122,1053.79 635.989,1051.64 635.643,1049.51 635.096,1047.42 634.36,1045.39 633.443,1043.43 632.362,1041.55 631.123,1039.76 629.739,1038.08 "/>
     <polygon id="_299643144" class="fil1" points="628.173,1070.64 1764.05,2206.53 1756.73,2217.61 1749.76,2228.61 1743.15,2239.52 1736.91,2250.33 1731.04,2261.05 1725.56,2271.67 1720.46,2282.18 1715.76,2292.59 1711.47,2302.9 1707.58,2313.09 1704.11,2323.17 1701.07,2333.13 1698.46,2342.97 1696.29,2352.69 1694.56,2362.29 1693.29,2371.76 1692.48,2381.11 1692.14,2390.31 1692.27,2399.39 1692.89,2408.33 1693.99,2417.12 1695.6,2425.78 1697.7,2434.28 1700.32,2442.64 1703.45,2450.85 1707.11,2458.9 1711.3,2466.8 1716.03,2474.54 1721.31,2482.11 1727.14,2489.52 1733.54,2496.77 1740.5,2503.84 604.617,1367.96 597.656,1360.89 591.263,1353.64 585.43,1346.23 580.152,1338.66 575.421,1330.92 571.229,1323.02 567.57,1314.97 564.435,1306.76 561.82,1298.4 559.714,1289.89 558.113,1281.24 557.008,1272.44 556.393,1263.51 556.261,1254.43 556.602,1245.22 557.412,1235.88 558.683,1226.41 560.408,1216.81 562.58,1207.09 565.19,1197.25 568.232,1187.28 571.7,1177.2 575.585,1167.01 579.88,1156.71 584.58,1146.3 589.676,1135.79 595.161,1125.17 601.028,1114.45 607.27,1103.64 613.88,1092.73 620.849,1081.73 "/>
     <polygon id="_299643312" class="fil1" points="1049.19,1583.15 2185.07,2719.03 2077.35,2719.03 941.465,1583.15 "/>
     <polygon id="_299643072" class="fil1" points="611.803,1433.36 1747.68,2569.24 1741.14,2565.32 1734.73,2561.34 1728.46,2557.32 1722.33,2553.24 1716.35,2549.12 1710.52,2544.94 1704.84,2540.71 1699.32,2536.42 1693.96,2532.07 1688.76,2527.66 552.88,1391.78 558.075,1396.19 563.435,1400.53 568.956,1404.82 574.635,1409.06 580.469,1413.23 586.452,1417.36 592.581,1421.43 598.851,1425.46 605.26,1429.43 "/>
     <polygon id="_299643096" class="fil1" points="713.36,1583.15 1849.24,2719.03 1847.8,2718.99 1846.38,2718.86 1844.98,2718.64 1843.62,2718.35 1842.28,2717.97 1840.98,2717.52 1839.71,2717 1838.49,2716.41 1837.3,2715.75 1836.16,2715.02 1835.06,2714.23 1834.02,2713.37 698.137,1577.49 699.184,1578.34 700.28,1579.13 701.421,1579.86 702.606,1580.52 703.834,1581.12 705.099,1581.64 706.4,1582.09 707.736,1582.46 709.101,1582.76 710.496,1582.97 711.917,1583.1 "/>
     <polygon id="_299642856" class="fil1" points="941.465,1583.15 2077.35,2719.03 1849.24,2719.03 713.36,1583.15 "/>
     <polygon id="_299642904" class="fil1" points="1145.88,1506.69 2281.76,2642.57 2281.6,2643.97 2281.42,2645.37 2281.21,2646.76 2280.99,2648.15 2280.74,2649.53 2280.47,2650.92 2280.18,2652.29 2279.87,2653.67 2279.54,2655.03 2279.18,2656.4 2278.8,2657.76 2278.4,2659.11 2277.98,2660.46 2277.53,2661.8 2277.06,2663.13 2276.57,2664.46 2276.05,2665.78 2275.51,2667.09 2274.95,2668.39 2274.37,2669.69 2273.76,2670.98 2273.12,2672.26 2272.47,2673.53 2271.78,2674.79 2271.08,2676.04 2270.35,2677.29 2269.59,2678.52 2268.82,2679.74 2268.01,2680.95 2267.18,2682.15 2266.33,2683.34 2265.45,2684.52 1129.57,1548.64 1130.45,1547.46 1131.3,1546.27 1132.13,1545.07 1132.93,1543.86 1133.71,1542.64 1134.47,1541.4 1135.2,1540.16 1135.9,1538.91 1136.58,1537.65 1137.24,1536.38 1137.87,1535.1 1138.48,1533.81 1139.07,1532.51 1139.63,1531.21 1140.17,1529.89 1140.69,1528.57 1141.18,1527.25 1141.65,1525.91 1142.1,1524.57 1142.52,1523.23 1142.92,1521.87 1143.3,1520.52 1143.66,1519.15 1143.99,1517.78 1144.3,1516.41 1144.59,1515.03 1144.86,1513.65 1145.11,1512.26 1145.33,1510.88 1145.53,1509.48 1145.72,1508.09 "/>
     <polygon id="_299642760" class="fil1" points="1129.57,1548.64 2265.45,2684.52 2263.97,2686.41 2262.42,2688.27 2260.81,2690.09 2259.14,2691.86 2257.41,2693.59 2255.61,2695.28 2253.75,2696.92 2251.82,2698.52 2249.83,2700.07 2247.77,2701.56 2245.65,2703.01 2243.46,2704.4 2241.2,2705.74 2238.88,2707.03 2236.49,2708.26 2234.03,2709.42 2231.5,2710.53 2228.91,2711.58 2226.24,2712.57 2223.51,2713.49 2220.7,2714.35 2217.83,2715.13 2214.88,2715.85 2211.86,2716.51 2208.77,2717.09 2205.6,2717.59 2202.37,2718.03 2199.06,2718.38 2195.67,2718.66 2192.22,2718.87 2188.68,2718.99 2185.07,2719.03 1049.19,1583.15 1052.8,1583.11 1056.33,1582.98 1059.79,1582.78 1063.18,1582.5 1066.49,1582.14 1069.72,1581.71 1072.89,1581.2 1075.98,1580.62 1079,1579.97 1081.94,1579.25 1084.82,1578.46 1087.63,1577.61 1090.36,1576.69 1093.03,1575.7 1095.62,1574.65 1098.15,1573.54 1100.61,1572.37 1103,1571.14 1105.32,1569.86 1107.58,1568.52 1109.77,1567.13 1111.89,1565.68 1113.95,1564.18 1115.94,1562.64 1117.86,1561.04 1119.73,1559.4 1121.52,1557.71 1123.26,1555.98 1124.93,1554.2 1126.54,1552.39 1128.09,1550.53 "/>
     <polygon id="_299642784" class="fil1" points="1547.18,765.741 2683.06,1901.62 2683.33,1906.4 2683.53,1911.19 2683.66,1915.99 2683.71,1920.79 2683.68,1925.59 2683.56,1930.38 2683.36,1935.18 2683.07,1939.96 2682.68,1944.72 2682.19,1949.48 2681.6,1954.21 2680.91,1958.91 2680.1,1963.59 2679.19,1968.24 2678.16,1972.86 2677.01,1977.43 2675.74,1981.97 2674.34,1986.46 2672.82,1990.91 2671.16,1995.3 2669.37,1999.63 2667.43,2003.91 2665.36,2008.13 2663.14,2012.28 2660.76,2016.36 2658.24,2020.37 2655.55,2024.3 2652.71,2028.16 2649.71,2031.93 2646.53,2035.61 2643.19,2039.21 2639.67,2042.71 1503.79,906.824 1507.31,903.323 1510.65,899.728 1513.83,896.044 1516.83,892.273 1519.67,888.419 1522.36,884.486 1524.88,880.477 1527.25,876.395 1529.48,872.245 1531.55,868.029 1533.49,863.751 1535.28,859.414 1536.94,855.023 1538.46,850.58 1539.86,846.088 1541.13,841.553 1542.28,836.975 1543.31,832.36 1544.22,827.711 1545.02,823.032 1545.72,818.324 1546.31,813.594 1546.8,808.842 1547.18,804.074 1547.48,799.293 1547.68,794.501 1547.8,789.703 1547.83,784.903 1547.78,780.103 1547.65,775.307 1547.45,770.519 "/>
     <polygon id="_299642664" class="fil1" points="1503.79,906.824 2639.67,2042.71 2636.43,2045.71 2633.07,2048.61 2629.62,2051.39 2626.06,2054.07 2622.39,2056.64 2618.62,2059.09 2614.75,2061.44 2610.77,2063.68 2606.69,2065.81 2602.51,2067.83 2598.22,2069.75 2593.83,2071.55 2589.33,2073.25 2584.73,2074.84 2580.03,2076.32 2575.23,2077.7 2570.32,2078.96 2565.32,2080.12 2560.2,2081.18 2554.99,2082.12 2549.68,2082.96 2544.26,2083.69 2538.74,2084.32 2533.12,2084.84 2527.4,2085.25 2521.57,2085.56 2515.65,2085.76 2509.62,2085.85 2503.5,2085.84 2497.27,2085.72 2490.94,2085.5 2484.51,2085.17 1348.63,949.292 1355.06,949.619 1361.39,949.841 1367.62,949.958 1373.74,949.968 1379.77,949.874 1385.69,949.673 1391.52,949.367 1397.24,948.955 1402.86,948.437 1408.38,947.811 1413.79,947.079 1419.11,946.241 1424.32,945.295 1429.43,944.242 1434.44,943.083 1439.35,941.816 1444.15,940.442 1448.85,938.959 1453.45,937.37 1457.95,935.672 1462.34,933.866 1466.63,931.952 1470.81,929.929 1474.89,927.798 1478.87,925.559 1482.74,923.209 1486.51,920.753 1490.18,918.185 1493.74,915.51 1497.19,912.724 1500.55,909.829 "/>
    </g>
    <path id="_300474920" class="fil1" d="M1200.75 622.464c39.5988,0.570473 71.5949,6.3756 97.7068,16.2319 30.6933,11.5843 53.2713,28.5744 70.3808,49.2048 7.95709,7.26497 21.3059,10.7161 37.6193,12.0662 20.0008,1.65591 40.1823,0.175984 60.1276,-1.53898 9.16182,-9.9945 19.0772,-17.0965 30.0177,-20.2654 18.4276,-5.33622 42.3851,2.29843 52.5248,18.8138 1.57559,2.2748 3.08032,4.74685 4.48937,7.39134 5.46142,10.2508 8.30316,21.711 7.1315,32.9681 -1.08425,10.4043 -5.30788,20.211 -13.5638,28.4055 3.25985,50.889 -4.93229,104.247 -43.3878,141.083 -34.0725,32.6374 -86.0564,46.5189 -155.159,42.4677 -44.8524,6.61654 -77.9823,18.176 -94.9394,36.5516 -14.5134,15.7264 -16.6299,39.1925 -2.94331,72.5186 88.8367,158.51 172.254,273.604 210.345,452.77l0.0389764 -0.00826772c4.50473,21.1819 -24.4075,47.9977 -40.5591,57.3414 -14.5949,8.44253 -31.6725,13.7221 -49.2957,15.1453 -17.5571,1.41732 -35.9067,-0.988583 -53.1496,-7.90512 -19.95,-8.00316 -50.1674,-31.2331 -57.0178,-52.6548 -16.226,-40.3382 -35.504,-85.1386 -56.7851,-125.78 -8.01969,-15.3154 -49.0205,-88.6028 -62.3977,-92.3847 -60.9308,8.19686 -146.469,24.8977 -149.799,94.4398 53.0315,2.84882 129.506,4.65237 149.087,64.7906 4.42441,13.5862 6.18426,28.2992 4.65827,42.574 -1.59685,14.9268 -6.80197,29.4484 -16.3051,41.9481 -15.5091,20.3988 -41.4851,34.5095 -80.3788,34.5095l-107.727 0 -228.104 0c-7.75749,0 -14.6303,-3.78898 -18.8681,-9.61654l-1.67717 -1.9004 -0.403937 -0.459449 -0.427559 -0.488977 -1.45512 -1.67008 -0.170079 -0.194882 -0.0248032 -0.0295276 -0.236221 -0.272835 -1.5 -1.73622 -0.52441 -0.61063 -1.52953 -1.79291 -0.212599 -0.249213 -0.0472441 -0.056693 -0.797245 -0.941339 -0.79252 -0.940158 -0.787796 -0.938977 -0.784253 -0.937796 -0.206693 -0.249213c-37.6843,-45.2374 -60.3957,-87.2351 -71.1119,-126.699 -70.4941,-41.6599 -118.76,-91.056 -123.409,-156.747 -4.70906,-66.528 -3.85985,-139.929 108.813,-240.581 22.7327,-20.341 53.6989,14.2689 30.9662,34.6087 -79.976,118.739 -100.867,222.79 -23.5559,297.316 4.94292,-90.7253 72.2221,-168.558 156.865,-244.168 28.9607,-25.8685 57.6745,-49.6075 86.5808,-73.5036 54.8752,-45.3662 111.118,-91.0383 158.746,-144.255l1.60984 -1.80591 0.141732 -0.158268 0.0885827 -0.100394 0.0141732 -0.0165354 1.81181 -2.0504 0.259843 -0.295276 0.346063 -0.39567 1.80709 -2.07166c-4.26969,-54.1288 -4.60276,-112.062 12.0768,-164.264 3.47481,-10.7622 7.63111,-20.8914 12.515,-30.3496 -10.1209,-33.1855 -13.5508,-67.8674 -10.5473,-103.984 1.3311,-15.998 35.5571,-117.725 31.9807,-122.317 5.02441,-11.8547 18.7099,-17.3929 30.5646,-12.3673 3.30591,1.40079 6.12048,3.47599 8.35158,5.99646 22.5272,21.9166 42.7441,46.7445 60.8563,74.2158 15.6992,23.8122 29.6705,49.3288 42.0603,76.3973z"/>
   </g>
  </g>
  <path class="fil2" d="M1024 -0.0011811c565.539,0 1024,458.462 1024,1024 0,565.539 -458.462,1024 -1024,1024 -565.539,0 -1024,-458.462 -1024,-1024 0,-565.539 458.462,-1024 1024,-1024z"/>
  <path class="fil3" d="M622.352 1439.45c11.2158,6.28701 25.4067,2.29134 31.6937,-8.9256 6.28819,-11.2169 2.29134,-25.4067 -8.9256,-31.6949 -122.693,-75.156 -108.662,-192.014 -16.9465,-328.183 22.7327,-20.3398 -8.23347,-54.9496 -30.9662,-34.6087 -112.673,100.652 -113.522,174.053 -108.813,240.581 4.87678,68.9174 57.763,119.9 133.957,162.83z"/>
  <path class="fil4" d="M1549.12 696.976c1.57559,2.2748 3.08032,4.74685 4.48937,7.39134 5.46142,10.2508 8.30316,21.711 7.1315,32.9681 -1.08425,10.4043 -5.30788,20.211 -13.5638,28.4055 3.97796,62.9871 -10.7327,109.801 -43.3878,141.083 -34.0725,32.6374 -86.0564,46.5189 -155.159,42.4677 -44.8524,6.61654 -77.9823,18.176 -94.9394,36.5516 -14.5134,15.7264 -16.6299,39.1925 -2.94331,72.5186 15.5717,27.7843 31.4646,54.6449 47.3835,81.5528 65.3587,110.469 131.177,221.713 162.962,371.217l0.0389764 -0.00826772c4.50473,21.1819 -24.4075,47.9977 -40.5591,57.3414 -14.5949,8.44253 -31.6725,13.7221 -49.2957,15.1453 -17.5571,1.41732 -35.9067,-0.988583 -53.1496,-7.90512 -19.95,-8.00316 -50.1674,-31.2331 -57.0178,-52.6548 -16.226,-40.3382 -35.504,-85.1386 -56.7851,-125.78 -18.8114,-35.9244 -39.2658,-68.8099 -60.6319,-92.6221 -47.7012,6.34371 -88.7446,16.513 -116.269,34.4422 -21.0201,13.6925 -33.9886,32.9422 -35.2961,60.2351 53.0315,2.84882 129.506,4.65237 149.087,64.7906 4.42441,13.5862 6.18426,28.2992 4.65827,42.574 -1.59685,14.9268 -6.80197,29.4484 -16.3051,41.9481 -15.5091,20.3988 -41.4851,34.5095 -80.3788,34.5095l-335.831 0c-7.75749,0 -14.6303,-3.78898 -18.8681,-9.61654 -168.2,-189.781 -75.0213,-322.883 66.9898,-449.741 28.9607,-25.8685 57.6745,-49.6075 86.5808,-73.5036 59.1449,-48.8953 119.104,-98.465 164.825,-151.149 -3.12992,-39.6803 -3.29173,-76.2792 0.484252,-108.788 3.78425,-32.5677 11.5122,-61.4646 24.1075,-85.8261 -10.1209,-33.1855 -13.5508,-67.8674 -10.5473,-103.984 1.3311,-15.998 35.5571,-117.725 31.9807,-122.317 5.02441,-11.8547 18.7099,-17.3929 30.5646,-12.3673 3.30591,1.40079 6.12048,3.47599 8.35158,5.99646 22.5272,21.9166 42.7441,46.7445 60.8563,74.2158 15.6992,23.8122 29.6705,49.3288 42.0603,76.3973 39.5988,0.570473 71.5949,6.3756 97.7068,16.2319 30.6933,11.5843 53.2713,28.5744 70.3808,49.2048 7.95709,7.26497 21.3059,10.7161 37.6193,12.0662 18.0118,1.48937 38.7213,0.320079 60.1276,-1.53898 9.16182,-9.9945 19.0772,-17.0965 30.0177,-20.2654 16.7669,-4.85552 33.0992,-1.04055 48.8457,14.3197l0.0696851 -0.0212599c1.41851,1.38189 2.61969,2.90079 3.60945,4.51536z"/>
  <path class="fil5" d="M1549.12 696.976c1.57559,2.2748 3.08032,4.74685 4.48937,7.39134 5.46142,10.2508 8.30316,21.711 7.1315,32.9681 -1.08425,10.4043 -5.30788,20.211 -13.5638,28.4055 1.55551,24.6307 0.253937,46.787 -3.86103,66.5091 -9.17481,3.39567 -18.9744,5.23819 -29.1591,5.23819 -51.5079,0 -93.2623,-46.9737 -93.2623,-104.92 0,-11.1331 1.54725,-21.8587 4.40315,-31.9264 13.0559,-0.0425197 27.0118,-0.975591 41.2796,-2.21457 9.16182,-9.9945 19.0772,-17.0965 30.0177,-20.2654 16.7669,-4.85552 33.0992,-1.04055 48.8457,14.3197l0.0696851 -0.0212599c1.41851,1.38189 2.61969,2.90079 3.60945,4.51536z"/>
  <path class="fil6" d="M941.465 1583.15l-228.104 0c-7.75749,0 -14.6303,-3.78898 -18.8681,-9.61654 -17.9799,-20.2866 -32.9492,-39.9201 -45.215,-58.9725 17.3351,-1.04173 36.3874,-6.71693 54.0189,-30.1429l20.1177 -26.7284c28.7681,-38.2217 92.6788,-46.0453 109.655,13.3677l1.37599 4.81654c12.6685,44.3327 -14.6339,79.4599 57.3461,53.3882 4.45866,-1.61457 29.4189,-0.858662 35.6126,-0.859843 14.5205,24.202 18.3638,41.354 14.061,54.7477z"/>
  <path class="fil6" d="M1271.51 1094.66c8.83229,15.1819 17.7248,30.2114 26.6244,45.2552 38.087,64.3737 76.3264,129.015 107.9,201.334 -8.02914,8.67166 -16.9984,15.9083 -26.3929,20.9303 -38.928,20.8169 -82.9194,-10.8154 -80.4402,-38.8807 -33.5091,-25.3465 31.7481,-58.7044 -9.30119,-118.765l-18.8776 -27.6189c-17.5417,-25.6642 -18.1606,-61.2721 0.487796,-82.2556z"/>
  <path class="fil6" d="M1153.01 1315.67c-3.08504,-3.85394 -6.19252,-7.53544 -9.3189,-11.0197 -37.7469,5.01969 -71.3221,12.437 -97.3312,24.1973 -29.4721,-10.2047 -72.7949,-14.6291 -88.5674,6.92008 -30.1571,41.204 -110.239,31.3902 -146.861,-2.9811 -32.1886,-30.2103 -16.3134,-82.0158 11.0669,-88.6572 13.2791,-39.8611 65.7815,11.2736 109.53,-46.8508l20.1177 -26.7284c28.767,-38.2217 92.6788,-46.0453 109.654,13.3677l1.37717 4.81654c12.6685,44.3327 -14.6351,79.4599 57.3449,53.3882 44.3906,-16.0736 71.2678,38.2335 32.9882,73.5473z"/>
  <path class="fil6" d="M971.48 942.696c14.6976,-14.3114 28.611,-28.813 41.4083,-43.5591 -3.12992,-39.6803 -3.29173,-76.2792 0.484252,-108.788 2.31614,-19.9335 6.10985,-38.491 11.5925,-55.4764 26.6091,-5.36103 54.3437,5.88662 64.6784,42.0603l1.37717 4.81654c12.6685,44.3327 -14.6351,79.4599 57.3449,53.3894 4.45985,-1.61457 29.4201,-0.859843 35.6126,-0.859843 29.4343,49.0571 19.3677,87.5953 -22.2508,87.6804 -70.5012,0.144095 -24.2232,16.2343 -70.1906,7.16812 -29.2642,-5.77087 -86.1993,-26.5784 -105.4,-0.343701 -4.05591,5.54056 -9.02127,10.1516 -14.6563,13.9122z"/>
  <path class="fil7" d="M1287.54 684.531c16.4847,0 29.8477,13.363 29.8477,29.8465 0,16.4858 -13.363,29.8477 -29.8477,29.8477 -16.4835,0 -29.8465,-13.3618 -29.8465,-29.8477 0,-16.4835 13.363,-29.8465 29.8465,-29.8465z"/>
  <path class="fil8" d="M1292.59 704.932c9.26812,0 16.7811,7.51182 16.7811,16.7799 0,9.26812 -7.513,16.7811 -16.7811,16.7811 -9.26812,0 -16.7799,-7.513 -16.7799,-16.7811 0,-9.26812 7.51182,-16.7799 16.7799,-16.7799z"/>
 </g>
</svg>
