<svg xmlns="http://www.w3.org/2000/svg" xmlns:xlink="http://www.w3.org/1999/xlink" viewBox="0 0 218.1 236.05"><defs><style>.cls-1{isolation:isolate;}.cls-2{opacity:0.4;mix-blend-mode:multiply;fill:url(#linear-gradient);}.cls-3{fill:#cec09f;}.cls-3,.cls-7{stroke:#212683;}.cls-3,.cls-4,.cls-5,.cls-7{stroke-miterlimit:10;stroke-width:6px;}.cls-4{fill:#a8dedb;}.cls-4,.cls-5{stroke:#1f2687;}.cls-5{fill:#f2a7c5;}.cls-6{fill:#212683;}.cls-7{fill:none;}</style><linearGradient id="linear-gradient" x1="-333.31" y1="447.77" x2="-128.92" y2="447.77" gradientTransform="translate(536.97 -162.01) rotate(27.99)" gradientUnits="userSpaceOnUse"><stop offset="0" stop-color="#efa6c2"/><stop offset="1" stop-color="#96cdbd"/></linearGradient></defs><title>Dog Food </title><g class="cls-1"><g id="Layer_2" data-name="Layer 2"><g id="Layer_1-2" data-name="Layer 1"><path class="cls-2" d="M171.91,129.29a56.57,56.57,0,0,0-18.44-6,67.89,67.89,0,1,0-100-24.95A56.69,56.69,0,1,0,92.18,199.12a56.68,56.68,0,1,0,79.73-69.83Z"/><path class="cls-3" d="M51,92.6A28.58,28.58,0,0,1,79.28,68.21h0a5.36,5.36,0,0,0,4-1.78,28.62,28.62,0,0,1,40.79-1.83,5.26,5.26,0,0,0,7.21,0,28.62,28.62,0,0,1,47.2,28"/><path class="cls-4" d="M192.49,103.26c-.85-6.18-4.78-10.66-9.36-10.66H47.29c-4.58,0-8.51,4.48-9.36,10.66l-9.54,69.32H202Z"/><path class="cls-3" d="M142.46,128.06v0a1.47,1.47,0,0,1-1.47,1.47H89.43A1.47,1.47,0,0,1,88,128.07v0a8.49,8.49,0,0,0-8.73-8.48A8.58,8.58,0,0,0,71,127.86a8.42,8.42,0,0,0,1.29,4.69,4.38,4.38,0,0,1,0,4.7A8.42,8.42,0,0,0,71,141.95a8.58,8.58,0,0,0,8.24,8.29A8.49,8.49,0,0,0,88,141.75v0a1.47,1.47,0,0,1,1.47-1.47H141a1.47,1.47,0,0,1,1.47,1.47v0a8.49,8.49,0,0,0,8.73,8.48,8.58,8.58,0,0,0,8.24-8.29,8.42,8.42,0,0,0-1.29-4.69,4.38,4.38,0,0,1,0-4.7,8.42,8.42,0,0,0,1.29-4.69,8.58,8.58,0,0,0-8.24-8.29A8.49,8.49,0,0,0,142.46,128.06Z"/><path class="cls-5" d="M125.23,189.92H215.1v-1.28A16.06,16.06,0,0,0,199,172.58H31.38a16.06,16.06,0,0,0-16.06,16.06v1.28h89.87"/><circle class="cls-6" cx="115.21" cy="189.92" r="2.69"/><line class="cls-7" x1="37.53" y1="107.13" x2="193.16" y2="107.13"/><line class="cls-7" x1="30.28" y1="159.77" x2="200.41" y2="159.77"/><path class="cls-7" d="M144.35,71.43h2.25a14.25,14.25,0,0,1,14.25,14.25h0"/><line class="cls-7" x1="180.1" y1="107.13" x2="180.1" y2="140.77"/><line class="cls-7" x1="180.1" y1="146.77" x2="180.1" y2="152.1"/><path class="cls-6" d="M38.33,39.37H35.58V36.61a3.4,3.4,0,0,0-6.79,0v2.76H26a3.4,3.4,0,0,0,0,6.79h2.76v2.76a3.4,3.4,0,0,0,6.79,0V46.16h2.76a3.4,3.4,0,0,0,0-6.79Z"/><path class="cls-6" d="M199.32,24.1h-2.76V21.34a3.4,3.4,0,0,0-6.79,0V24.1H187a3.4,3.4,0,0,0,0,6.79h2.76v2.76a3.4,3.4,0,0,0,6.79,0V30.89h2.76a3.4,3.4,0,0,0,0-6.79Z"/><path class="cls-6" d="M104.32,218.42h-2.76v-2.76a3.4,3.4,0,0,0-6.79,0v2.76H92a3.4,3.4,0,0,0,0,6.79h2.76V228a3.4,3.4,0,0,0,6.79,0v-2.76h2.76a3.4,3.4,0,0,0,0-6.79Z"/></g></g></g></svg>