<?xml version="1.0" encoding="utf-8"?>
<!-- Generator: Adobe Illustrator 24.3.0, SVG Export Plug-In . SVG Version: 6.00 Build 0)  -->
<svg version="1.1" id="Layer_1" xmlns="http://www.w3.org/2000/svg" xmlns:xlink="http://www.w3.org/1999/xlink" x="0px" y="0px"
	 viewBox="0 0 80 80" enable-background="new 0 0 80 80" xml:space="preserve">
<g>
	<path fill="#3DAA9D" d="M40,44.222c-11.809,0-18.25-2.148-18.25-3.25c0-1.104,6.441-3.25,18.25-3.25
		c11.809,0,18.251,2.146,18.251,3.25C58.25,42.074,51.809,44.222,40,44.222z"/>
	<path fill="#79CCB8" d="M58.95,40.767c-0.484-2.022-8.091-3.646-17.653-3.782c1.121,0.58,2.38,1.128,3.809,1.634
		c6.269,0.369,10.253,1.371,11.793,2.148c0.139,0.07,0.261,0.139,0.359,0.205c-0.746,0.494-2.618,1.127-5.562,1.632
		c-2.883,0.495-6.794,0.868-11.697,0.868c-1.951,0-3.739-0.061-5.374-0.163c-6.672-0.417-10.7-1.552-11.885-2.337
		c0.099-0.066,0.221-0.135,0.359-0.205c1.259-0.636,4.156-1.42,8.59-1.888c-0.413-0.489-0.833-0.94-1.26-1.358
		c-5.36,0.662-9.049,1.859-9.381,3.246L16,54.472c0,2.088,6.142,3.877,14.867,4.626c2.816,0.241,5.9,0.374,9.133,0.374
		c2.594,0,5.093-0.085,7.433-0.244C57.049,58.575,64,56.693,64,54.472L58.95,40.767z"/>
	<path fill="#E2E2E2" d="M51.697,42.603c-0.135-0.767-0.508-1.495-1.143-2.043c-0.429-0.37-0.921-0.618-1.436-0.746
		c-1.466-0.366-2.797-0.767-4.012-1.196c-1.429-0.506-2.688-1.054-3.809-1.634c-7.86-4.067-8.695-9.784-9.671-14.563l-0.001-0.004
		c-0.127-0.472-0.408-0.904-0.805-1.247c-1.102-0.952-2.766-0.83-3.717,0.271c-0.39,0.452-0.706,1.001-0.636,1.552
		c0,0,0.001,0.002,0.001,0.004c0.104,1.214-0.797,4.631-4.139,2.575c-1.524-0.937-3.489-0.821-4.682,0.559
		c-1.263,1.461-1.102,3.67,0.36,4.933c0.351,0.304,0.743,0.53,1.159,0.665c4.325,1.394,8.022,2.631,11.262,5.791
		c0.428,0.418,0.848,0.869,1.26,1.358c1.023,1.215,2,2.667,2.936,4.43c0.909,0.057,1.87,0.099,2.875,0.126
		c-2.938-8.569-7.974-10.369-14.573-13.04c0,0,14.005-0.274,16.397,13.071c0.226,0.002,0.445,0.006,0.675,0.006
		C44.903,43.472,48.814,43.099,51.697,42.603z"/>
	<path fill="#C6C6C6" d="M22.928,30.394c6.599,2.671,11.635,4.471,14.573,13.04c0.59,0.017,1.2,0.026,1.824,0.031
		C36.932,30.12,22.928,30.394,22.928,30.394z"/>
</g>
</svg>
