<?xml version="1.0" encoding="utf-8"?>
<!-- Generator: Adobe Illustrator 24.3.0, SVG Export Plug-In . SVG Version: 6.00 Build 0)  -->
<svg version="1.1" id="Layer_1" xmlns="http://www.w3.org/2000/svg" xmlns:xlink="http://www.w3.org/1999/xlink" x="0px" y="0px"
	 viewBox="0 0 325 325" enable-background="new 0 0 325 325" xml:space="preserve">
<g id="köpek_1_">
	<g>
		<path fill="#F2977B" d="M155.859,54.66l-1.496,38.136c0,0,28.808-20.19,34.033-20.564L155.859,54.66z"/>
		<path opacity="0.7" fill="#C66854" d="M155.859,55.034l-1.496,37.763l28.186-18.881c0,0-12.585,6.949-14.914,8.412
			c-3.387,2.129-10.053,0.298-11.03-11.591L155.859,55.034z"/>
		<path fill="#F8EFEC" d="M155.859,54.66c0,0,32.527,8.6,34.397,21.686c0,0-11.965,14.581-17.012,15.703
			C173.244,92.049,164.084,68.494,155.859,54.66z"/>
	</g>
	<g>
		<path fill="#F2977B" d="M119.517,54.601c0,0,11.831,15.328,11.261,33.27c-0.099,3.118-2.054,12.308-2.054,12.308
			S105.184,85,99.852,84.528L119.517,54.601z"/>
		<path opacity="0.7" fill="#C66854" d="M104.594,77.162c0,0,11.61,13.188,16.537,11.9c4.305-1.126,7.514-16.137,7.514-16.137
			s4.65,10.367,0.081,27.254c0,0-22.689-14.75-28.873-15.651L104.594,77.162z"/>
		<path fill="#F8EFEC" d="M119.517,54.601c0,0-31.296,24.203-25.196,37.013l23.404,9.545
			C117.725,101.159,123.574,69.169,119.517,54.601z"/>
	</g>
	<path fill="#F8EFEC" d="M122.355,81.841c0.373-0.874,0.953-1.639,1.853-2.213c1.132-0.722,2.351-1.336,3.559-1.912
		c3.307-1.577,6.82-2.738,10.426-3.396c5.447-0.996,11.076-0.718,16.423,0.697c2.796,0.74,5.508,1.783,8.092,3.079
		c1.24,0.622,2.463,1.295,3.634,2.04c3.461,2.199,2.006,9.38,2.006,12.973c0,0,88.902-7.345,88.902,0l-0.889,53.696
		c0,0-8.736,30.895-18.107,28.616l-73.056-28.075l13.882,116.348c0,0-32.947,8.291-96.088-1.9c0,0-18.996,0.253-16.717-22.289
		c0,0-3.292-40.778,12.918-50.403c0,0-14.944,58.002,5.319,67.879l29.381-113.47c0.964-5.255,1.859-10.525,2.725-15.797
		c1.464-8.905,2.841-17.831,3.913-26.793c0.468-3.915,0.896-7.843,1.116-11.782C121.772,86.875,121.424,84.019,122.355,81.841z"/>
	<path fill="#333333" d="M203.553,88.804c0,0,45.879-13.896,54.456-3.292c5.952,7.358-10.13,36.473-10.13,36.473
		S195.702,90.831,203.553,88.804z"/>
	<g>
		<path fill="#60391E" d="M198.994,107.548c0.235,0.778,0.174,1.542,0.008,2.278c-0.186,0.731-0.505,1.442-1.008,2.057
			c-0.496,0.614-1.169,1.136-1.951,1.414c-0.797,0.255-1.674,0.219-2.367-0.178c0.688-0.448,1.181-0.797,1.607-1.199
			c0.417-0.415,0.777-0.835,1.153-1.291C197.194,109.71,197.88,108.663,198.994,107.548z"/>
	</g>
	<g>
		<path fill="#60391E" d="M197.474,110.08l14.003,9.593c4.67,3.123,9.355,6.174,14.164,8.95c4.811,2.758,9.744,5.283,14.915,6.99
			c2.587,0.83,5.245,1.448,7.942,1.513c2.695,0.113,5.438-0.396,7.99-1.717c-2.026,2.058-4.929,3.242-7.869,3.677
			c-2.963,0.415-5.98,0.175-8.852-0.453c-5.784-1.217-11.127-3.687-16.124-6.546c-4.989-2.898-9.672-6.24-14.039-9.932
			C205.228,118.482,201.093,114.518,197.474,110.08z"/>
	</g>
	<path fill="#333333" d="M151.884,141.487c0,0,82.316,34.06,90.421,34.633"/>
	<g>
		<path fill="#E1C8BE" d="M120.976,98.453c0.039,3.4-0.111,6.8-0.342,10.188l-0.393,5.079l-0.525,5.063
			c-0.346,3.377-0.811,6.737-1.286,10.095c-0.448,3.363-1.012,6.706-1.584,10.047c-0.553,3.347-1.157,6.675-1.833,10.005
			c-0.686,3.355-1.439,6.665-2.214,9.968c-1.516,6.614-3.281,13.148-4.971,19.701c-3.438,13.089-7.138,26.098-10.953,39.073
			c-0.938,3.248-1.946,6.477-2.915,9.716c-0.973,3.238-1.953,6.474-2.968,9.7l-3.024,9.684c-0.979,3.236-2.102,6.433-2.951,9.705
			c0.434-3.364,1.135-6.685,1.804-10.002c0.666-3.321,1.396-6.624,2.119-9.93c0.712-3.308,1.468-6.605,2.231-9.899
			c0.768-3.293,1.498-6.596,2.297-9.88c3.131-13.154,6.366-26.278,9.661-39.374l4.856-19.645c0.8-3.27,1.578-6.545,2.277-9.805
			c0.676-3.293,1.422-6.588,2.146-9.878C115.265,124.879,118.204,111.736,120.976,98.453z"/>
	</g>
	<g>
		<path fill="#E1C8BE" d="M78.934,188.598c-1.996,1.997-3.47,4.374-4.762,6.798c-1.264,2.445-2.309,4.986-3.111,7.603
			c-0.852,2.599-1.47,5.268-1.967,7.956c-0.528,2.684-0.817,5.414-1.059,8.143c-0.252,2.73-0.354,5.479-0.36,8.231l0.015,4.132
			c0.056,1.379,0.093,2.758,0.169,4.138c0.295,5.52,0.862,11.044,1.584,16.572l-0.055-0.21c0.18,0.557,0.512,1.286,0.842,1.914
			c0.342,0.648,0.743,1.27,1.184,1.863c0.887,1.185,1.954,2.245,3.165,3.143c2.433,1.798,5.478,2.807,8.664,3.169
			c-1.594,0.184-3.231,0.158-4.854-0.115c-1.625-0.26-3.229-0.804-4.716-1.601c-1.502-0.778-2.861-1.847-4.034-3.093
			c-0.587-0.624-1.134-1.289-1.624-2.002c-0.501-0.731-0.922-1.416-1.308-2.349l-0.016-0.038l-0.04-0.173
			c-1.271-5.521-2.193-11.142-2.65-16.826c-0.104-1.421-0.168-2.848-0.25-4.272c-0.018-1.429-0.103-2.856-0.063-4.288
			c0.056-2.861,0.212-5.725,0.526-8.581c0.357-2.851,0.845-5.689,1.538-8.488c0.714-2.793,1.64-5.535,2.776-8.187
			c1.188-2.629,2.547-5.192,4.283-7.496c0.848-1.161,1.769-2.269,2.79-3.276C76.618,190.26,77.709,189.313,78.934,188.598z"/>
	</g>
	<path opacity="0.4" fill="#CD6A28" d="M167.701,90.917c0,5.316-4.307,9.624-9.623,9.624s-9.625-4.308-9.625-9.624
		c0-5.315,4.309-9.623,9.625-9.623S167.701,85.601,167.701,90.917z"/>
	<g>
		<path fill="#333333" d="M150.364,87.538c1.799,1.261,3.361,2.556,4.922,3.68c1.515,1.106,3.169,2.095,4.283,2.155
			c0.538,0.04,0.936-0.04,1.484-0.381c0.541-0.344,1.113-0.954,1.672-1.659c1.108-1.454,2.081-3.255,3.343-5.062
			c0.354,2.176,0.219,4.356-0.567,6.541c-0.423,1.084-1.033,2.19-2.08,3.145c-0.526,0.469-1.183,0.881-1.925,1.132
			c-0.372,0.134-0.753,0.219-1.144,0.25c-0.393,0.063-0.768,0.041-1.147,0.017c-1.509-0.15-2.708-0.78-3.68-1.486
			c-0.976-0.718-1.769-1.545-2.447-2.426C151.745,91.673,150.783,89.714,150.364,87.538z"/>
	</g>
	<g>
		<path fill="#333333" d="M130.102,89.311c1.942,1.654,3.658,3.346,5.399,4.869c0.868,0.755,1.734,1.473,2.595,2.045
			c0.844,0.559,1.735,1.012,2.309,1.026c0.294,0.049,0.491-0.009,0.724-0.083c0.12-0.043,0.241-0.134,0.381-0.196
			c0.13-0.131,0.27-0.229,0.421-0.365c0.605-0.564,1.128-1.538,1.652-2.496c1.015-2.002,1.849-4.279,2.981-6.574
			c0.514,2.506,0.542,5.038-0.017,7.625c-0.336,1.291-0.732,2.613-1.724,3.899c-0.244,0.321-0.568,0.619-0.864,0.918
			c-0.361,0.271-0.73,0.554-1.154,0.766c-0.873,0.411-1.903,0.595-2.816,0.483c-1.867-0.219-3.122-1.127-4.196-2
			c-1.058-0.909-1.908-1.918-2.644-2.977C131.702,94.124,130.631,91.824,130.102,89.311z"/>
	</g>
	<path opacity="0.4" fill="#A8A8A8" d="M203.553,88.804c0,0,47.375-14.696,55.014-2.413c0,0-1.319,6.718-27.931,2.67
		C223.943,88.044,203.553,88.804,203.553,88.804z"/>
	<path fill="#F8EFEC" d="M134.443,75.194c0,0-3.879-2.07,1.457-7.87c0,0,0.251,6.035,5.35,4.728c0,0-5.19-6.634,2.54-9.942
		c0,0-1.128,9.784,4.304,10.702c0,0,2.097-2.499-0.09-5.784c0,0,4.57,2.619,3.105,7.232
		C151.109,74.261,143.501,72.485,134.443,75.194z"/>
	<g>
		<path fill="#F1E1DC" d="M134.119,197.803c-10.112,13.628,2.799,67.819,2.799,67.819l10.387-0.429c0,0,9.683-56.325-2.801-67.818
			C142.593,195.614,135.666,195.716,134.119,197.803z"/>
		<path fill="#F1E1DC" d="M156.229,196.89c-10.111,13.627,2.8,67.818,2.8,67.818l10.386-0.429c0,0,9.683-56.324-2.801-67.818
			C164.703,194.701,157.777,194.803,156.229,196.89z"/>
		<path fill="#F1E1DC" d="M104.44,238.157c3.344-4.273,21.438-25.851,20.62-3.562c-0.301,8.192-8.951,20.68-19.936,26.036
			c0,0,18.744-7.077,21.298,5.423l-7.909,2.582l-34.803-0.818C83.71,267.818,99.225,244.821,104.44,238.157z"/>
		<g>
			<path fill="#F8EFEC" d="M136.749,268.092c0,0,0.015-6.882,7.219-6.281c0,0,5.13-2.985,7.223,2.653l0.125,3.027
				C151.316,267.49,140.194,271.838,136.749,268.092z"/>
			<g>
				<path fill="#424242" d="M146.717,263.193c0.657,0.709,1.025,1.516,1.325,2.347c0.27,0.841,0.47,1.705,0.379,2.668
					c-0.659-0.708-1.027-1.516-1.325-2.347C146.828,265.02,146.628,264.155,146.717,263.193z"/>
			</g>
			<g>
				<path fill="#424242" d="M142.574,264.261c0.427,0.78,0.548,1.573,0.598,2.368c0.018,0.797-0.038,1.597-0.401,2.409
					c-0.429-0.78-0.55-1.573-0.598-2.368C142.157,265.874,142.212,265.074,142.574,264.261z"/>
			</g>
		</g>
		<g>
			<path fill="#F8EFEC" d="M115.2,269.056c0,0-0.541-7.612,7.475-7.532c0,0,5.434-3.717,8.204,2.35l0.384,3.338
				C131.263,267.212,119.314,272.921,115.2,269.056z"/>
			<g>
				<path fill="#424242" d="M125.829,262.83c0.745,0.748,1.208,1.615,1.605,2.51c0.368,0.907,0.668,1.843,0.684,2.899
					c-0.747-0.747-1.21-1.614-1.605-2.51C126.147,264.822,125.847,263.886,125.829,262.83z"/>
			</g>
			<g>
				<path fill="#424242" d="M121.332,264.348c0.493,0.833,0.681,1.701,0.799,2.577c0.086,0.88,0.099,1.768-0.194,2.691
					c-0.495-0.833-0.684-1.701-0.799-2.577C121.054,266.16,121.041,265.271,121.332,264.348z"/>
			</g>
		</g>
		<g>
			<path fill="#F8EFEC" d="M171.374,266.788c0,0-0.54-6.353-7.147-5.248c0,0-4.965-2.365-6.467,3.001l0.115,2.805
				C157.875,267.345,168.479,270.511,171.374,266.788z"/>
			<g>
				<path fill="#424242" d="M161.794,263.026c0.184,0.889,0.072,1.704-0.11,2.502c-0.213,0.79-0.497,1.562-1.08,2.259
					c-0.186-0.89-0.074-1.705,0.11-2.502C160.929,264.496,161.213,263.724,161.794,263.026z"/>
			</g>
			<g>
				<path fill="#424242" d="M165.703,263.696c0.424,0.722,0.543,1.456,0.591,2.193c0.016,0.738-0.042,1.48-0.408,2.234
					c-0.427-0.721-0.546-1.456-0.591-2.193C165.282,265.191,165.339,264.45,165.703,263.696z"/>
			</g>
		</g>
	</g>
</g>
</svg>
